# xmcd
#
# Track frame offsets:
#	150
#	4399
#	18817
#	30254
#	42120
#	56221
#	69128
#	80668
#	95232
#	114050
#	140292
#	150730
#	168500
#	185672
#	217032
#
# Disc length: 3064
#
# Revision: 3
# Processed by: cddbd v1.5.1PL0 Copyright (c) Steve Scherf et al.
# Submitted via: audiograbber 1.81.03
# Normalized: r2:DSETVAR1
#
DISCID=c10bf60f
DTITLE=Various Artist - Nescafé Blues
DYEAR=1900
DGENRE=Blues
TTITLE0=Dados - Faixa de Dados
TTITLE1=T Bone Walker - Born To Be No Good
TTITLE2=John Lee Hooker - Boom - Boom
TTITLE3=Otis Rush - All Your Love
TTITLE4=Sonny Boy Williamson - Help Me
TTITLE5=Clarence Gatemouth Brown - My Time Is Expensive
TTITLE6=Buddy Guy - My Mother
TTITLE7=Eric Clapton/J.Beck/J.Page - I See A Man Downstairs
TTITLE8=Eric Clapton/J.Beck/J.Page - New York City Blues
TTITLE9=Eric Clapton/J.Beck/J.Page - Little Red Rooster
TTITLE10=Eric Clapton - West Coast Idea
TTITLE11=John Mayall and The BluesBreakers - Telephone Blues
TTITLE12=Savoy Brown - Cold Blooded Woman
TTITLE13=Albert King - Kansas City
TTITLE14=Robert Cray - That's What I'll Do
EXTD=
EXTT0=
EXTT1=
EXTT2=
EXTT3=
EXTT4=
EXTT5=
EXTT6=
EXTT7=
EXTT8=
EXTT9=
EXTT10=
EXTT11=
EXTT12=
EXTT13=
EXTT14=
PLAYORDER=
